<svg id="my-svg" width="100%" xmlns="http://www.w3.org/2000/svg" xmlns:xlink="http://www.w3.org/1999/xlink" class="erDiagram" style="max-width: 1191.25px; background-color: white;" viewBox="0 0 1191.25 672.75" role="graphics-document document" aria-roledescription="er"><style>#my-svg{font-family:"trebuchet ms",verdana,arial,sans-serif;font-size:16px;fill:#333;}@keyframes edge-animation-frame{from{stroke-dashoffset:0;}}@keyframes dash{to{stroke-dashoffset:0;}}#my-svg .edge-animation-slow{stroke-dasharray:9,5!important;stroke-dashoffset:900;animation:dash 50s linear infinite;stroke-linecap:round;}#my-svg .edge-animation-fast{stroke-dasharray:9,5!important;stroke-dashoffset:900;animation:dash 20s linear infinite;stroke-linecap:round;}#my-svg .error-icon{fill:#552222;}#my-svg .error-text{fill:#552222;stroke:#552222;}#my-svg .edge-thickness-normal{stroke-width:1px;}#my-svg .edge-thickness-thick{stroke-width:3.5px;}#my-svg .edge-pattern-solid{stroke-dasharray:0;}#my-svg .edge-thickness-invisible{stroke-width:0;fill:none;}#my-svg .edge-pattern-dashed{stroke-dasharray:3;}#my-svg .edge-pattern-dotted{stroke-dasharray:2;}#my-svg .marker{fill:#333333;stroke:#333333;}#my-svg .marker.cross{stroke:#333333;}#my-svg svg{font-family:"trebuchet ms",verdana,arial,sans-serif;font-size:16px;}#my-svg p{margin:0;}#my-svg .entityBox{fill:#ECECFF;stroke:#9370DB;}#my-svg .relationshipLabelBox{fill:hsl(80, 100%, 96.2745098039%);opacity:0.7;background-color:hsl(80, 100%, 96.2745098039%);}#my-svg .relationshipLabelBox rect{opacity:0.5;}#my-svg .labelBkg{background-color:rgba(248.6666666666, 255, 235.9999999999, 0.5);}#my-svg .edgeLabel{background-color:rgba(232,232,232, 0.8);}#my-svg .edgeLabel .label rect{fill:rgba(232,232,232, 0.8);}#my-svg .edgeLabel .label text{fill:#333;}#my-svg .edgeLabel .label{fill:#9370DB;font-size:14px;}#my-svg .label{font-family:"trebuchet ms",verdana,arial,sans-serif;color:#333;}#my-svg .edge-pattern-dashed{stroke-dasharray:8,8;}#my-svg .node rect,#my-svg .node circle,#my-svg .node ellipse,#my-svg .node polygon{fill:#ECECFF;stroke:#9370DB;stroke-width:1px;}#my-svg .relationshipLine{stroke:#333333;stroke-width:1px;fill:none;}#my-svg .marker{fill:none!important;stroke:#333333!important;stroke-width:1;}#my-svg [data-look=neo].labelBkg{background-color:rgba(248.6666666666, 255, 235.9999999999, 0.5);}#my-svg .node .neo-node{stroke:#9370DB;}#my-svg [data-look="neo"].node rect,#my-svg [data-look="neo"].cluster rect,#my-svg [data-look="neo"].node polygon{stroke:#9370DB;filter:drop-shadow(1px 2px 2px rgba(185, 185, 185, 1));}#my-svg [data-look="neo"].swimlane.cluster rect{filter:none;}#my-svg [data-look="neo"].node path{stroke:#9370DB;stroke-width:1px;}#my-svg [data-look="neo"].node .outer-path{filter:drop-shadow(1px 2px 2px rgba(185, 185, 185, 1));}#my-svg [data-look="neo"].node .neo-line path{stroke:#9370DB;filter:none;}#my-svg [data-look="neo"].node circle{stroke:#9370DB;filter:drop-shadow(1px 2px 2px rgba(185, 185, 185, 1));}#my-svg [data-look="neo"].node circle .state-start{fill:#000000;}#my-svg [data-look="neo"].icon-shape .icon{fill:#9370DB;filter:drop-shadow(1px 2px 2px rgba(185, 185, 185, 1));}#my-svg [data-look="neo"].icon-shape .icon-neo path{stroke:#9370DB;filter:drop-shadow(1px 2px 2px rgba(185, 185, 185, 1));}#my-svg :root{--mermaid-font-family:"trebuchet ms",verdana,arial,sans-serif;}</style><g><defs><marker id="my-svg_er-onlyOneStart" class="marker onlyOne er" refX="0" refY="9" markerWidth="18" markerHeight="18" orient="auto"><path d="M9,0 L9,18 M15,0 L15,18"/></marker></defs><defs><marker id="my-svg_er-onlyOneEnd" class="marker onlyOne er" refX="18" refY="9" markerWidth="18" markerHeight="18" orient="auto"><path d="M3,0 L3,18 M9,0 L9,18"/></marker></defs><defs><marker id="my-svg_er-zeroOrOneStart" class="marker zeroOrOne er" refX="0" refY="9" markerWidth="30" markerHeight="18" orient="auto"><circle fill="white" cx="21" cy="9" r="6"/><path d="M9,0 L9,18"/></marker></defs><defs><marker id="my-svg_er-zeroOrOneEnd" class="marker zeroOrOne er" refX="30" refY="9" markerWidth="30" markerHeight="18" orient="auto"><circle fill="white" cx="9" cy="9" r="6"/><path d="M21,0 L21,18"/></marker></defs><defs><marker id="my-svg_er-oneOrMoreStart" class="marker oneOrMore er" refX="18" refY="18" markerWidth="45" markerHeight="36" orient="auto"><path d="M0,18 Q 18,0 36,18 Q 18,36 0,18 M42,9 L42,27"/></marker></defs><defs><marker id="my-svg_er-oneOrMoreEnd" class="marker oneOrMore er" refX="27" refY="18" markerWidth="45" markerHeight="36" orient="auto"><path d="M3,9 L3,27 M9,18 Q27,0 45,18 Q27,36 9,18"/></marker></defs><defs><marker id="my-svg_er-zeroOrMoreStart" class="marker zeroOrMore er" refX="18" refY="18" markerWidth="57" markerHeight="36" orient="auto"><circle fill="white" cx="48" cy="18" r="6"/><path d="M0,18 Q18,0 36,18 Q18,36 0,18"/></marker></defs><defs><marker id="my-svg_er-zeroOrMoreEnd" class="marker zeroOrMore er" refX="39" refY="18" markerWidth="57" markerHeight="36" orient="auto"><circle fill="white" cx="9" cy="18" r="6"/><path d="M21,18 Q39,0 57,18 Q39,36 21,18"/></marker></defs><g class="root"><g class="clusters"/><g class="edgePaths"><path d="M460.047,165.884L410.492,183.611C360.938,201.339,261.828,236.795,212.273,262.939C162.719,289.083,162.719,305.917,162.719,314.333L162.719,322.75" id="my-svg-id_entity-ZONAS_PROTEGIDAS-0_entity-CONDICIONES_METEOROLOGICAS-1_0" class="edge-thickness-normal edge-pattern-solid relationshipLine" style="undefined;;;undefined" data-edge="true" data-et="edge" data-id="id_entity-ZONAS_PROTEGIDAS-0_entity-CONDICIONES_METEOROLOGICAS-1_0" data-points="W3sieCI6NDYwLjA0Njg3NSwieSI6MTY1Ljg4MzczOTcyMTg5MTcxfSx7IngiOjE2Mi43MTg3NSwieSI6MjcyLjI1fSx7IngiOjE2Mi43MTg3NSwieSI6MzIyLjc1fV0=" data-look="classic" marker-start="url(#my-svg_er-onlyOneStart)" marker-end="url(#my-svg_er-zeroOrMoreEnd)"/><path d="M602.633,221.75L602.633,230.167C602.633,238.583,602.633,255.417,602.633,279.375C602.633,303.333,602.633,334.417,602.633,349.958L602.633,365.5" id="my-svg-id_entity-ZONAS_PROTEGIDAS-0_entity-INCIDENTES_HISTORICOS-2_1" class="edge-thickness-normal edge-pattern-solid relationshipLine" style="undefined;;;undefined" data-edge="true" data-et="edge" data-id="id_entity-ZONAS_PROTEGIDAS-0_entity-INCIDENTES_HISTORICOS-2_1" data-points="W3sieCI6NjAyLjYzMjgxMjUsInkiOjIyMS43NX0seyJ4Ijo2MDIuNjMyODEyNSwieSI6MjcyLjI1fSx7IngiOjYwMi42MzI4MTI1LCJ5IjozNjUuNX1d" data-look="classic" marker-start="url(#my-svg_er-onlyOneStart)" marker-end="url(#my-svg_er-zeroOrMoreEnd)"/><path d="M745.219,166.709L793.605,184.3C841.992,201.89,938.766,237.07,987.152,266.639C1035.539,296.208,1035.539,320.167,1035.539,332.146L1035.539,344.125" id="my-svg-id_entity-ZONAS_PROTEGIDAS-0_entity-PREDICCIONES_RIESGO-3_2" class="edge-thickness-normal edge-pattern-solid relationshipLine" style="undefined;;;undefined" data-edge="true" data-et="edge" data-id="id_entity-ZONAS_PROTEGIDAS-0_entity-PREDICCIONES_RIESGO-3_2" data-points="W3sieCI6NzQ1LjIxODc1LCJ5IjoxNjYuNzA5NDYwNDk1OTIxNDZ9LHsieCI6MTAzNS41MzkwNjI1LCJ5IjoyNzIuMjV9LHsieCI6MTAzNS41MzkwNjI1LCJ5IjozNDQuMTI1fV0=" data-look="classic" marker-start="url(#my-svg_er-onlyOneStart)" marker-end="url(#my-svg_er-zeroOrMoreEnd)"/></g><g class="edgeLabels"><g class="edgeLabel" transform="translate(162.71875, 272.25)"><g class="label" data-id="id_entity-ZONAS_PROTEGIDAS-0_entity-CONDICIONES_METEOROLOGICAS-1_0" transform="translate(-25.375, -10.5)"><foreignObject width="50.75" height="21"><div xmlns="http://www.w3.org/1999/xhtml" class="labelBkg" style="display: table-cell; white-space: nowrap; line-height: 1.5; max-width: 200px; text-align: center;"><span class="edgeLabel"><p>registra</p></span></div></foreignObject></g></g><g class="edgeLabel" transform="translate(602.6328125, 272.25)"><g class="label" data-id="id_entity-ZONAS_PROTEGIDAS-0_entity-INCIDENTES_HISTORICOS-2_1" transform="translate(-28.4765625, -10.5)"><foreignObject width="56.953125" height="21"><div xmlns="http://www.w3.org/1999/xhtml" class="labelBkg" style="display: table-cell; white-space: nowrap; line-height: 1.5; max-width: 200px; text-align: center;"><span class="edgeLabel"><p>contiene</p></span></div></foreignObject></g></g><g class="edgeLabel" transform="translate(1035.5390625, 272.25)"><g class="label" data-id="id_entity-ZONAS_PROTEGIDAS-0_entity-PREDICCIONES_RIESGO-3_2" transform="translate(-21.3515625, -10.5)"><foreignObject width="42.703125" height="21"><div xmlns="http://www.w3.org/1999/xhtml" class="labelBkg" style="display: table-cell; white-space: nowrap; line-height: 1.5; max-width: 200px; text-align: center;"><span class="edgeLabel"><p>evalua</p></span></div></foreignObject></g></g></g><g class="nodes"><g class="node default" id="my-svg-entity-ZONAS_PROTEGIDAS-0" data-look="classic" transform="translate(602.6328125, 114.875)"><g class="outer-path" style=""><path d="M-142.5859375 -106.875 L142.5859375 -106.875 L142.5859375 106.875 L-142.5859375 106.875" stroke="none" stroke-width="0" fill="#ECECFF"/><path d="M-142.5859375 -106.875 C-50.759691588441186 -106.875, 41.06655432311763 -106.875, 142.5859375 -106.875 M-142.5859375 -106.875 C-69.92885248627152 -106.875, 2.728232527456953 -106.875, 142.5859375 -106.875 M142.5859375 -106.875 C142.5859375 -41.68812590585034, 142.5859375 23.498748188299317, 142.5859375 106.875 M142.5859375 -106.875 C142.5859375 -29.18799585404254, 142.5859375 48.49900829191492, 142.5859375 106.875 M142.5859375 106.875 C71.96517304400761 106.875, 1.3444085880152272 106.875, -142.5859375 106.875 M142.5859375 106.875 C77.05684751493796 106.875, 11.527757529875913 106.875, -142.5859375 106.875 M-142.5859375 106.875 C-142.5859375 60.124225901698736, -142.5859375 13.373451803397472, -142.5859375 -106.875 M-142.5859375 106.875 C-142.5859375 59.22313478085694, -142.5859375 11.571269561713876, -142.5859375 -106.875" stroke="#9370DB" stroke-width="1.3" fill="none" stroke-dasharray="0 0"/></g><g style="" class="row-rect-odd"><path d="M-142.5859375 -64.125 L142.5859375 -64.125 L142.5859375 -21.375 L-142.5859375 -21.375" stroke="none" stroke-width="0" fill="hsl(240, 100%, 100%)"/><path d="M-142.5859375 -64.125 C-78.10945711531046 -64.125, -13.632976730620925 -64.125, 142.5859375 -64.125 M-142.5859375 -64.125 C-76.4527940705641 -64.125, -10.319650641128192 -64.125, 142.5859375 -64.125 M142.5859375 -64.125 C142.5859375 -49.570878039441844, 142.5859375 -35.01675607888369, 142.5859375 -21.375 M142.5859375 -64.125 C142.5859375 -49.79981380541396, 142.5859375 -35.47462761082792, 142.5859375 -21.375 M142.5859375 -21.375 C45.69804275370548 -21.375, -51.18985199258904 -21.375, -142.5859375 -21.375 M142.5859375 -21.375 C53.2130298138802 -21.375, -36.159877872239605 -21.375, -142.5859375 -21.375 M-142.5859375 -21.375 C-142.5859375 -34.86135551484705, -142.5859375 -48.34771102969409, -142.5859375 -64.125 M-142.5859375 -21.375 C-142.5859375 -38.19795897171974, -142.5859375 -55.02091794343948, -142.5859375 -64.125" stroke="#9370DB" stroke-width="1.3" fill="none" stroke-dasharray="0 0"/></g><g style="" class="row-rect-even"><path d="M-142.5859375 -21.375 L142.5859375 -21.375 L142.5859375 21.375 L-142.5859375 21.375" stroke="none" stroke-width="0" fill="hsl(240, 100%, 97.2745098039%)"/><path d="M-142.5859375 -21.375 C-76.87312332885654 -21.375, -11.160309157713073 -21.375, 142.5859375 -21.375 M-142.5859375 -21.375 C-54.612140600779895 -21.375, 33.36165629844021 -21.375, 142.5859375 -21.375 M142.5859375 -21.375 C142.5859375 -7.58502927409357, 142.5859375 6.204941451812861, 142.5859375 21.375 M142.5859375 -21.375 C142.5859375 -7.22420174896045, 142.5859375 6.9265965020791, 142.5859375 21.375 M142.5859375 21.375 C43.50828469699684 21.375, -55.56936810600632 21.375, -142.5859375 21.375 M142.5859375 21.375 C66.93589429538316 21.375, -8.714148909233671 21.375, -142.5859375 21.375 M-142.5859375 21.375 C-142.5859375 4.569375419621608, -142.5859375 -12.236249160756785, -142.5859375 -21.375 M-142.5859375 21.375 C-142.5859375 11.728583982790443, -142.5859375 2.0821679655808865, -142.5859375 -21.375" stroke="#9370DB" stroke-width="1.3" fill="none" stroke-dasharray="0 0"/></g><g style="" class="row-rect-odd"><path d="M-142.5859375 21.375 L142.5859375 21.375 L142.5859375 64.125 L-142.5859375 64.125" stroke="none" stroke-width="0" fill="hsl(240, 100%, 100%)"/><path d="M-142.5859375 21.375 C-29.712203185149534 21.375, 83.16153112970093 21.375, 142.5859375 21.375 M-142.5859375 21.375 C-32.98972558024147 21.375, 76.60648633951706 21.375, 142.5859375 21.375 M142.5859375 21.375 C142.5859375 30.521419629953414, 142.5859375 39.66783925990683, 142.5859375 64.125 M142.5859375 21.375 C142.5859375 36.21469897490203, 142.5859375 51.054397949804056, 142.5859375 64.125 M142.5859375 64.125 C80.46554806836777 64.125, 18.345158636735533 64.125, -142.5859375 64.125 M142.5859375 64.125 C53.24203477665108 64.125, -36.10186794669784 64.125, -142.5859375 64.125 M-142.5859375 64.125 C-142.5859375 54.127474453225915, -142.5859375 44.12994890645183, -142.5859375 21.375 M-142.5859375 64.125 C-142.5859375 48.68939477135825, -142.5859375 33.25378954271651, -142.5859375 21.375" stroke="#9370DB" stroke-width="1.3" fill="none" stroke-dasharray="0 0"/></g><g style="" class="row-rect-even"><path d="M-142.5859375 64.125 L142.5859375 64.125 L142.5859375 106.875 L-142.5859375 106.875" stroke="none" stroke-width="0" fill="hsl(240, 100%, 97.2745098039%)"/><path d="M-142.5859375 64.125 C-55.25760310978872 64.125, 32.070731280422564 64.125, 142.5859375 64.125 M-142.5859375 64.125 C-70.3887562039554 64.125, 1.8084250920892089 64.125, 142.5859375 64.125 M142.5859375 64.125 C142.5859375 76.07883499350002, 142.5859375 88.03266998700005, 142.5859375 106.875 M142.5859375 64.125 C142.5859375 75.85986018942518, 142.5859375 87.59472037885035, 142.5859375 106.875 M142.5859375 106.875 C31.7694624560948 106.875, -79.0470125878104 106.875, -142.5859375 106.875 M142.5859375 106.875 C57.234622945511475 106.875, -28.11669160897705 106.875, -142.5859375 106.875 M-142.5859375 106.875 C-142.5859375 94.41466761348889, -142.5859375 81.95433522697778, -142.5859375 64.125 M-142.5859375 106.875 C-142.5859375 95.50106648561011, -142.5859375 84.12713297122022, -142.5859375 64.125" stroke="#9370DB" stroke-width="1.3" fill="none" stroke-dasharray="0 0"/></g><g class="label name" transform="translate(-78.3203125, -97.5)" style=""><foreignObject width="156.640625" height="24"><div xmlns="http://www.w3.org/1999/xhtml" style="display: table-cell; white-space: nowrap; line-height: 1.5; max-width: 259px; text-align: start;"><span class="nodeLabel"><p>ZONAS_PROTEGIDAS</p></span></div></foreignObject></g><g class="label attribute-type" transform="translate(-130.0859375, -54.75)" style=""><foreignObject width="40.5" height="24"><div xmlns="http://www.w3.org/1999/xhtml" style="display: table-cell; white-space: nowrap; line-height: 1.5; max-width: 141px; text-align: start;"><span class="nodeLabel"><p>UUID</p></span></div></foreignObject></g><g class="label attribute-name" transform="translate(-30.1953125, -54.75)" style=""><foreignObject width="57.140625" height="24"><div xmlns="http://www.w3.org/1999/xhtml" style="display: table-cell; white-space: nowrap; line-height: 1.5; max-width: 158px; text-align: start;"><span class="nodeLabel"><p>id_zona</p></span></div></foreignObject></g><g class="label attribute-keys" transform="translate(108.4765625, -54.75)" style=""><foreignObject width="19.59375" height="24"><div xmlns="http://www.w3.org/1999/xhtml" style="display: table-cell; white-space: nowrap; line-height: 1.5; max-width: 120px; text-align: start;"><span class="nodeLabel"><p>PK</p></span></div></foreignObject></g><g class="label attribute-comment" transform="translate(155.0859375, -54.75)" style=""><foreignObject width="0" height="0"><div xmlns="http://www.w3.org/1999/xhtml" style="display: table-cell; white-space: nowrap; line-height: 1.5; max-width: 100px; text-align: start;"><span class="nodeLabel"></span></div></foreignObject></g><g class="label attribute-type" transform="translate(-130.0859375, -12)" style=""><foreignObject width="45.03125" height="24"><div xmlns="http://www.w3.org/1999/xhtml" style="display: table-cell; white-space: nowrap; line-height: 1.5; max-width: 146px; text-align: start;"><span class="nodeLabel"><p>String</p></span></div></foreignObject></g><g class="label attribute-name" transform="translate(-30.1953125, -12)" style=""><foreignObject width="59.6875" height="24"><div xmlns="http://www.w3.org/1999/xhtml" style="display: table-cell; white-space: nowrap; line-height: 1.5; max-width: 161px; text-align: start;"><span class="nodeLabel"><p>nombre</p></span></div></foreignObject></g><g class="label attribute-keys" transform="translate(108.4765625, -12)" style=""><foreignObject width="21.609375" height="24"><div xmlns="http://www.w3.org/1999/xhtml" style="display: table-cell; white-space: nowrap; line-height: 1.5; max-width: 122px; text-align: start;"><span class="nodeLabel"><p>UK</p></span></div></foreignObject></g><g class="label attribute-comment" transform="translate(155.0859375, -12)" style=""><foreignObject width="0" height="0"><div xmlns="http://www.w3.org/1999/xhtml" style="display: table-cell; white-space: nowrap; line-height: 1.5; max-width: 100px; text-align: start;"><span class="nodeLabel"></span></div></foreignObject></g><g class="label attribute-type" transform="translate(-130.0859375, 30.75)" style=""><foreignObject width="74.890625" height="24"><div xmlns="http://www.w3.org/1999/xhtml" style="display: table-cell; white-space: nowrap; line-height: 1.5; max-width: 177px; text-align: start;"><span class="nodeLabel"><p>Geometry</p></span></div></foreignObject></g><g class="label attribute-name" transform="translate(-30.1953125, 30.75)" style=""><foreignObject width="78.03125" height="24"><div xmlns="http://www.w3.org/1999/xhtml" style="display: table-cell; white-space: nowrap; line-height: 1.5; max-width: 179px; text-align: start;"><span class="nodeLabel"><p>geometria</p></span></div></foreignObject></g><g class="label attribute-keys" transform="translate(108.4765625, 30.75)" style=""><foreignObject width="0" height="0"><div xmlns="http://www.w3.org/1999/xhtml" style="display: table-cell; white-space: nowrap; line-height: 1.5; max-width: 100px; text-align: start;"><span class="nodeLabel"></span></div></foreignObject></g><g class="label attribute-comment" transform="translate(155.0859375, 30.75)" style=""><foreignObject width="0" height="0"><div xmlns="http://www.w3.org/1999/xhtml" style="display: table-cell; white-space: nowrap; line-height: 1.5; max-width: 100px; text-align: start;"><span class="nodeLabel"></span></div></foreignObject></g><g class="label attribute-type" transform="translate(-130.0859375, 73.5)" style=""><foreignObject width="36.875" height="24"><div xmlns="http://www.w3.org/1999/xhtml" style="display: table-cell; white-space: nowrap; line-height: 1.5; max-width: 137px; text-align: start;"><span class="nodeLabel"><p>Float</p></span></div></foreignObject></g><g class="label attribute-name" transform="translate(-30.1953125, 73.5)" style=""><foreignObject width="113.671875" height="24"><div xmlns="http://www.w3.org/1999/xhtml" style="display: table-cell; white-space: nowrap; line-height: 1.5; max-width: 216px; text-align: start;"><span class="nodeLabel"><p>area_hectareas</p></span></div></foreignObject></g><g class="label attribute-keys" transform="translate(108.4765625, 73.5)" style=""><foreignObject width="0" height="0"><div xmlns="http://www.w3.org/1999/xhtml" style="display: table-cell; white-space: nowrap; line-height: 1.5; max-width: 100px; text-align: start;"><span class="nodeLabel"></span></div></foreignObject></g><g class="label attribute-comment" transform="translate(155.0859375, 73.5)" style=""><foreignObject width="0" height="0"><div xmlns="http://www.w3.org/1999/xhtml" style="display: table-cell; white-space: nowrap; line-height: 1.5; max-width: 100px; text-align: start;"><span class="nodeLabel"></span></div></foreignObject></g><g class="divider"><path d="M-142.5859375 -64.12505 L-142.5859375 -64.12495 L142.5859375 -64.12495 L142.5859375 -64.12505" stroke="none" stroke-width="0" fill="#ECECFF" fill-rule="evenodd"/><path d="M-142.5859375 -64.12505 C-142.5859375 -64.12501680370931, -142.5859375 -64.12498360741863, -142.5859375 -64.12495 M-142.5859375 -64.12505 C-142.5859375 -64.12502065771835, -142.5859375 -64.1249913154367, -142.5859375 -64.12495 M-142.5859375 -64.12495 C-84.19635620506358 -64.12495, -25.806774910127146 -64.12495, 142.5859375 -64.12495 M-142.5859375 -64.12495 C-67.28069313607048 -64.12495, 8.024551227859035 -64.12495, 142.5859375 -64.12495 M142.5859375 -64.12495 C142.5859375 -64.12497481915993, 142.5859375 -64.12499963831986, 142.5859375 -64.12505 M142.5859375 -64.12495 C142.5859375 -64.12497256720415, 142.5859375 -64.12499513440831, 142.5859375 -64.12505 M142.5859375 -64.12505 C78.13023239756815 -64.12505, 13.6745272951363 -64.12505, -142.5859375 -64.12505 M142.5859375 -64.12505 C41.40942455657468 -64.12505, -59.767088386850645 -64.12505, -142.5859375 -64.12505" stroke="#9370DB" stroke-width="1.3" fill="none" stroke-dasharray="0 0"/></g><g class="divider"><path d="M-42.6953625 -64.125 L-42.6952625 -64.125 L-42.6952625 106.875 L-42.6953625 106.875" stroke="none" stroke-width="0" fill="#ECECFF" fill-rule="evenodd"/><path d="M-42.6953625 -64.125 C-42.69533535958382 -64.125, -42.69530821916764 -64.125, -42.6952625 -64.125 M-42.6953625 -64.125 C-42.695323124118204 -64.125, -42.695283748236406 -64.125, -42.6952625 -64.125 M-42.6952625 -64.125 C-42.6952625 -16.116577403777228, -42.6952625 31.891845192445544, -42.6952625 106.875 M-42.6952625 -64.125 C-42.6952625 -18.56510294569179, -42.6952625 26.994794108616418, -42.6952625 106.875 M-42.6952625 106.875 C-42.69529195512274 106.875, -42.69532141024549 106.875, -42.6953625 106.875 M-42.6952625 106.875 C-42.69530159675938 106.875, -42.69534069351876 106.875, -42.6953625 106.875 M-42.6953625 106.875 C-42.6953625 57.758546846541314, -42.6953625 8.642093693082629, -42.6953625 -64.125 M-42.6953625 106.875 C-42.6953625 59.99645801395707, -42.6953625 13.117916027914134, -42.6953625 -64.125" stroke="#9370DB" stroke-width="1.3" fill="none" stroke-dasharray="0 0"/></g><g class="divider"><path d="M95.9765125 -64.125 L95.9766125 -64.125 L95.9766125 106.875 L95.9765125 106.875" stroke="none" stroke-width="0" fill="#ECECFF" fill-rule="evenodd"/><path d="M95.9765125 -64.125 C95.97653963169354 -64.125, 95.97656676338707 -64.125, 95.9766125 -64.125 M95.9765125 -64.125 C95.97655107551338 -64.125, 95.97658965102677 -64.125, 95.9766125 -64.125 M95.9766125 -64.125 C95.9766125 -25.67110007222309, 95.9766125 12.782799855553819, 95.9766125 106.875 M95.9766125 -64.125 C95.9766125 -19.505415221659113, 95.9766125 25.114169556681773, 95.9766125 106.875 M95.9766125 106.875 C95.97658129942735 106.875, 95.9765500988547 106.875, 95.9765125 106.875 M95.9766125 106.875 C95.97658319862849 106.875, 95.97655389725696 106.875, 95.9765125 106.875 M95.9765125 106.875 C95.9765125 71.2093182848453, 95.9765125 35.543636569690605, 95.9765125 -64.125 M95.9765125 106.875 C95.9765125 66.34967776147815, 95.9765125 25.82435552295631, 95.9765125 -64.125" stroke="#9370DB" stroke-width="1.3" fill="none" stroke-dasharray="0 0"/></g><g class="divider"><path d="M-142.5859375 -64.12505 L-142.5859375 -64.12495 L142.5859375 -64.12495 L142.5859375 -64.12505" stroke="none" stroke-width="0" fill="#ECECFF" fill-rule="evenodd"/><path d="M-142.5859375 -64.12505 C-142.5859375 -64.12501118942525, -142.5859375 -64.12497237885052, -142.5859375 -64.12495 M-142.5859375 -64.12505 C-142.5859375 -64.1250248245243, -142.5859375 -64.12499964904859, -142.5859375 -64.12495 M-142.5859375 -64.12495 C-62.63466168989919 -64.12495, 17.31661412020162 -64.12495, 142.5859375 -64.12495 M-142.5859375 -64.12495 C-32.281087234114665 -64.12495, 78.02376303177067 -64.12495, 142.5859375 -64.12495 M142.5859375 -64.12495 C142.5859375 -64.1249857134941, 142.5859375 -64.12502142698821, 142.5859375 -64.12505 M142.5859375 -64.12495 C142.5859375 -64.12497036901811, 142.5859375 -64.12499073803623, 142.5859375 -64.12505 M142.5859375 -64.12505 C84.93701173244112 -64.12505, 27.288085964882242 -64.12505, -142.5859375 -64.12505 M142.5859375 -64.12505 C39.375935430376515 -64.12505, -63.83406663924697 -64.12505, -142.5859375 -64.12505" stroke="#9370DB" stroke-width="1.3" fill="none" stroke-dasharray="0 0"/></g></g><g class="node default" id="my-svg-entity-CONDICIONES_METEOROLOGICAS-1" data-look="classic" transform="translate(162.71875, 493.75)"><g class="outer-path" style=""><path d="M-154.71875 -171 L154.71875 -171 L154.71875 171 L-154.71875 171" stroke="none" stroke-width="0" fill="#ECECFF"/><path d="M-154.71875 -171 C-69.812072337178 -171, 15.094605325644011 -171, 154.71875 -171 M-154.71875 -171 C-82.52018240765845 -171, -10.321614815316906 -171, 154.71875 -171 M154.71875 -171 C154.71875 -65.101229637899, 154.71875 40.79754072420201, 154.71875 171 M154.71875 -171 C154.71875 -49.34071233574106, 154.71875 72.31857532851788, 154.71875 171 M154.71875 171 C79.87519019301686 171, 5.031630386033726 171, -154.71875 171 M154.71875 171 C44.03886823073351 171, -66.64101353853297 171, -154.71875 171 M-154.71875 171 C-154.71875 76.63810728313639, -154.71875 -17.723785433727215, -154.71875 -171 M-154.71875 171 C-154.71875 88.77036213461771, -154.71875 6.540724269235426, -154.71875 -171" stroke="#9370DB" stroke-width="1.3" fill="none" stroke-dasharray="0 0"/></g><g style="" class="row-rect-odd"><path d="M-154.71875 -128.25 L154.71875 -128.25 L154.71875 -85.5 L-154.71875 -85.5" stroke="none" stroke-width="0" fill="hsl(240, 100%, 100%)"/><path d="M-154.71875 -128.25 C-61.40280769162351 -128.25, 31.913134616752984 -128.25, 154.71875 -128.25 M-154.71875 -128.25 C-50.034645248388784 -128.25, 54.64945950322243 -128.25, 154.71875 -128.25 M154.71875 -128.25 C154.71875 -114.20136386880152, 154.71875 -100.15272773760304, 154.71875 -85.5 M154.71875 -128.25 C154.71875 -116.02533881471226, 154.71875 -103.80067762942453, 154.71875 -85.5 M154.71875 -85.5 C61.386232824824944 -85.5, -31.946284350350112 -85.5, -154.71875 -85.5 M154.71875 -85.5 C47.44839505416084 -85.5, -59.82195989167832 -85.5, -154.71875 -85.5 M-154.71875 -85.5 C-154.71875 -94.2961925367967, -154.71875 -103.09238507359338, -154.71875 -128.25 M-154.71875 -85.5 C-154.71875 -96.90049674499984, -154.71875 -108.30099348999968, -154.71875 -128.25" stroke="#9370DB" stroke-width="1.3" fill="none" stroke-dasharray="0 0"/></g><g style="" class="row-rect-even"><path d="M-154.71875 -85.5 L154.71875 -85.5 L154.71875 -42.75 L-154.71875 -42.75" stroke="none" stroke-width="0" fill="hsl(240, 100%, 97.2745098039%)"/><path d="M-154.71875 -85.5 C-48.16393936072012 -85.5, 58.39087127855976 -85.5, 154.71875 -85.5 M-154.71875 -85.5 C-73.20115164455147 -85.5, 8.316446710897054 -85.5, 154.71875 -85.5 M154.71875 -85.5 C154.71875 -74.46289384724358, 154.71875 -63.42578769448716, 154.71875 -42.75 M154.71875 -85.5 C154.71875 -73.27106818892621, 154.71875 -61.042136377852415, 154.71875 -42.75 M154.71875 -42.75 C89.8938930552226 -42.75, 25.06903611044521 -42.75, -154.71875 -42.75 M154.71875 -42.75 C77.28009654274739 -42.75, -0.15855691450522613 -42.75, -154.71875 -42.75 M-154.71875 -42.75 C-154.71875 -54.253198286004775, -154.71875 -65.75639657200955, -154.71875 -85.5 M-154.71875 -42.75 C-154.71875 -52.09316114503365, -154.71875 -61.436322290067295, -154.71875 -85.5" stroke="#9370DB" stroke-width="1.3" fill="none" stroke-dasharray="0 0"/></g><g style="" class="row-rect-odd"><path d="M-154.71875 -42.75 L154.71875 -42.75 L154.71875 0 L-154.71875 0" stroke="none" stroke-width="0" fill="hsl(240, 100%, 100%)"/><path d="M-154.71875 -42.75 C-34.385338288539714 -42.75, 85.94807342292057 -42.75, 154.71875 -42.75 M-154.71875 -42.75 C-72.22177109033369 -42.75, 10.275207819332621 -42.75, 154.71875 -42.75 M154.71875 -42.75 C154.71875 -32.562300873280535, 154.71875 -22.37460174656107, 154.71875 0 M154.71875 -42.75 C154.71875 -29.95121959513654, 154.71875 -17.15243919027308, 154.71875 0 M154.71875 0 C86.68476722415005 0, 18.6507844483001 0, -154.71875 0 M154.71875 0 C67.64186433070934 0, -19.435021338581322 0, -154.71875 0 M-154.71875 0 C-154.71875 -12.667627738429692, -154.71875 -25.335255476859384, -154.71875 -42.75 M-154.71875 0 C-154.71875 -16.291877652231303, -154.71875 -32.583755304462606, -154.71875 -42.75" stroke="#9370DB" stroke-width="1.3" fill="none" stroke-dasharray="0 0"/></g><g style="" class="row-rect-even"><path d="M-154.71875 0 L154.71875 0 L154.71875 42.75 L-154.71875 42.75" stroke="none" stroke-width="0" fill="hsl(240, 100%, 97.2745098039%)"/><path d="M-154.71875 0 C-70.51530664763416 0, 13.688136704731676 0, 154.71875 0 M-154.71875 0 C-47.66283081828965 0, 59.3930883634207 0, 154.71875 0 M154.71875 0 C154.71875 9.399516154085925, 154.71875 18.79903230817185, 154.71875 42.75 M154.71875 0 C154.71875 11.632458916090306, 154.71875 23.26491783218061, 154.71875 42.75 M154.71875 42.75 C53.92927037199168 42.75, -46.860209256016645 42.75, -154.71875 42.75 M154.71875 42.75 C44.536402251407424 42.75, -65.64594549718515 42.75, -154.71875 42.75 M-154.71875 42.75 C-154.71875 27.503188553952015, -154.71875 12.25637710790403, -154.71875 0 M-154.71875 42.75 C-154.71875 31.787393694053755, -154.71875 20.82478738810751, -154.71875 0" stroke="#9370DB" stroke-width="1.3" fill="none" stroke-dasharray="0 0"/></g><g style="" class="row-rect-odd"><path d="M-154.71875 42.75 L154.71875 42.75 L154.71875 85.5 L-154.71875 85.5" stroke="none" stroke-width="0" fill="hsl(240, 100%, 100%)"/><path d="M-154.71875 42.75 C-33.302722042804376 42.75, 88.11330591439125 42.75, 154.71875 42.75 M-154.71875 42.75 C-49.2710428916416 42.75, 56.1766642167168 42.75, 154.71875 42.75 M154.71875 42.75 C154.71875 52.130137318016466, 154.71875 61.51027463603293, 154.71875 85.5 M154.71875 42.75 C154.71875 56.99521434802446, 154.71875 71.24042869604892, 154.71875 85.5 M154.71875 85.5 C92.39935789461055 85.5, 30.079965789221106 85.5, -154.71875 85.5 M154.71875 85.5 C78.01614314815154 85.5, 1.3135362963030843 85.5, -154.71875 85.5 M-154.71875 85.5 C-154.71875 75.05135013284385, -154.71875 64.6027002656877, -154.71875 42.75 M-154.71875 85.5 C-154.71875 72.5740513567286, -154.71875 59.648102713457206, -154.71875 42.75" stroke="#9370DB" stroke-width="1.3" fill="none" stroke-dasharray="0 0"/></g><g style="" class="row-rect-even"><path d="M-154.71875 85.5 L154.71875 85.5 L154.71875 128.25 L-154.71875 128.25" stroke="none" stroke-width="0" fill="hsl(240, 100%, 97.2745098039%)"/><path d="M-154.71875 85.5 C-91.71192287075789 85.5, -28.705095741515763 85.5, 154.71875 85.5 M-154.71875 85.5 C-48.82680819639084 85.5, 57.065133607218314 85.5, 154.71875 85.5 M154.71875 85.5 C154.71875 100.46352526820846, 154.71875 115.4270505364169, 154.71875 128.25 M154.71875 85.5 C154.71875 99.5726265869766, 154.71875 113.6452531739532, 154.71875 128.25 M154.71875 128.25 C80.02844121464747 128.25, 5.338132429294944 128.25, -154.71875 128.25 M154.71875 128.25 C59.7076680445866 128.25, -35.303413910826805 128.25, -154.71875 128.25 M-154.71875 128.25 C-154.71875 115.37011736171559, -154.71875 102.49023472343119, -154.71875 85.5 M-154.71875 128.25 C-154.71875 111.55767673571782, -154.71875 94.86535347143564, -154.71875 85.5" stroke="#9370DB" stroke-width="1.3" fill="none" stroke-dasharray="0 0"/></g><g style="" class="row-rect-odd"><path d="M-154.71875 128.25 L154.71875 128.25 L154.71875 171 L-154.71875 171" stroke="none" stroke-width="0" fill="hsl(240, 100%, 100%)"/><path d="M-154.71875 128.25 C-88.59793037811406 128.25, -22.477110756228114 128.25, 154.71875 128.25 M-154.71875 128.25 C-42.36652553686744 128.25, 69.98569892626512 128.25, 154.71875 128.25 M154.71875 128.25 C154.71875 139.1941902124773, 154.71875 150.13838042495465, 154.71875 171 M154.71875 128.25 C154.71875 139.08803826746913, 154.71875 149.92607653493826, 154.71875 171 M154.71875 171 C84.00136706860256 171, 13.283984137205124 171, -154.71875 171 M154.71875 171 C32.35861597055535 171, -90.0015180588893 171, -154.71875 171 M-154.71875 171 C-154.71875 157.55240844413242, -154.71875 144.10481688826488, -154.71875 128.25 M-154.71875 171 C-154.71875 157.23858605498623, -154.71875 143.47717210997246, -154.71875 128.25" stroke="#9370DB" stroke-width="1.3" fill="none" stroke-dasharray="0 0"/></g><g class="label name" transform="translate(-129.71875, -161.625)" style=""><foreignObject width="259.4375" height="24"><div xmlns="http://www.w3.org/1999/xhtml" style="display: table-cell; white-space: nowrap; line-height: 1.5; max-width: 362px; text-align: start;"><span class="nodeLabel"><p>CONDICIONES_METEOROLOGICAS</p></span></div></foreignObject></g><g class="label attribute-type" transform="translate(-142.21875, -118.875)" style=""><foreignObject width="40.5" height="24"><div xmlns="http://www.w3.org/1999/xhtml" style="display: table-cell; white-space: nowrap; line-height: 1.5; max-width: 141px; text-align: start;"><span class="nodeLabel"><p>UUID</p></span></div></foreignObject></g><g class="label attribute-name" transform="translate(-29.64583333333333, -118.875)" style=""><foreignObject width="93.671875" height="24"><div xmlns="http://www.w3.org/1999/xhtml" style="display: table-cell; white-space: nowrap; line-height: 1.5; max-width: 195px; text-align: start;"><span class="nodeLabel"><p>id_condicion</p></span></div></foreignObject></g><g class="label attribute-keys" transform="translate(107.52083333333331, -118.875)" style=""><foreignObject width="19.59375" height="24"><div xmlns="http://www.w3.org/1999/xhtml" style="display: table-cell; white-space: nowrap; line-height: 1.5; max-width: 120px; text-align: start;"><span class="nodeLabel"><p>PK</p></span></div></foreignObject></g><g class="label attribute-comment" transform="translate(167.21875, -118.875)" style=""><foreignObject width="0" height="0"><div xmlns="http://www.w3.org/1999/xhtml" style="display: table-cell; white-space: nowrap; line-height: 1.5; max-width: 100px; text-align: start;"><span class="nodeLabel"></span></div></foreignObject></g><g class="label attribute-type" transform="translate(-142.21875, -76.125)" style=""><foreignObject width="40.5" height="24"><div xmlns="http://www.w3.org/1999/xhtml" style="display: table-cell; white-space: nowrap; line-height: 1.5; max-width: 141px; text-align: start;"><span class="nodeLabel"><p>UUID</p></span></div></foreignObject></g><g class="label attribute-name" transform="translate(-29.64583333333333, -76.125)" style=""><foreignObject width="57.140625" height="24"><div xmlns="http://www.w3.org/1999/xhtml" style="display: table-cell; white-space: nowrap; line-height: 1.5; max-width: 158px; text-align: start;"><span class="nodeLabel"><p>id_zona</p></span></div></foreignObject></g><g class="label attribute-keys" transform="translate(107.52083333333331, -76.125)" style=""><foreignObject width="18.21875" height="24"><div xmlns="http://www.w3.org/1999/xhtml" style="display: table-cell; white-space: nowrap; line-height: 1.5; max-width: 118px; text-align: start;"><span class="nodeLabel"><p>FK</p></span></div></foreignObject></g><g class="label attribute-comment" transform="translate(167.21875, -76.125)" style=""><foreignObject width="0" height="0"><div xmlns="http://www.w3.org/1999/xhtml" style="display: table-cell; white-space: nowrap; line-height: 1.5; max-width: 100px; text-align: start;"><span class="nodeLabel"></span></div></foreignObject></g><g class="label attribute-type" transform="translate(-142.21875, -33.375)" style=""><foreignObject width="72.46875" height="24"><div xmlns="http://www.w3.org/1999/xhtml" style="display: table-cell; white-space: nowrap; line-height: 1.5; max-width: 173px; text-align: start;"><span class="nodeLabel"><p>DateTime</p></span></div></foreignObject></g><g class="label attribute-name" transform="translate(-29.64583333333333, -33.375)" style=""><foreignObject width="83.015625" height="24"><div xmlns="http://www.w3.org/1999/xhtml" style="display: table-cell; white-space: nowrap; line-height: 1.5; max-width: 185px; text-align: start;"><span class="nodeLabel"><p>fecha_hora</p></span></div></foreignObject></g><g class="label attribute-keys" transform="translate(107.52083333333331, -33.375)" style=""><foreignObject width="0" height="0"><div xmlns="http://www.w3.org/1999/xhtml" style="display: table-cell; white-space: nowrap; line-height: 1.5; max-width: 100px; text-align: start;"><span class="nodeLabel"></span></div></foreignObject></g><g class="label attribute-comment" transform="translate(167.21875, -33.375)" style=""><foreignObject width="0" height="0"><div xmlns="http://www.w3.org/1999/xhtml" style="display: table-cell; white-space: nowrap; line-height: 1.5; max-width: 100px; text-align: start;"><span class="nodeLabel"></span></div></foreignObject></g><g class="label attribute-type" transform="translate(-142.21875, 9.375)" style=""><foreignObject width="36.875" height="24"><div xmlns="http://www.w3.org/1999/xhtml" style="display: table-cell; white-space: nowrap; line-height: 1.5; max-width: 137px; text-align: start;"><span class="nodeLabel"><p>Float</p></span></div></foreignObject></g><g class="label attribute-name" transform="translate(-29.64583333333333, 9.375)" style=""><foreignObject width="94.828125" height="24"><div xmlns="http://www.w3.org/1999/xhtml" style="display: table-cell; white-space: nowrap; line-height: 1.5; max-width: 197px; text-align: start;"><span class="nodeLabel"><p>temperatura</p></span></div></foreignObject></g><g class="label attribute-keys" transform="translate(107.52083333333331, 9.375)" style=""><foreignObject width="0" height="0"><div xmlns="http://www.w3.org/1999/xhtml" style="display: table-cell; white-space: nowrap; line-height: 1.5; max-width: 100px; text-align: start;"><span class="nodeLabel"></span></div></foreignObject></g><g class="label attribute-comment" transform="translate(167.21875, 9.375)" style=""><foreignObject width="0" height="0"><div xmlns="http://www.w3.org/1999/xhtml" style="display: table-cell; white-space: nowrap; line-height: 1.5; max-width: 100px; text-align: start;"><span class="nodeLabel"></span></div></foreignObject></g><g class="label attribute-type" transform="translate(-142.21875, 52.125)" style=""><foreignObject width="36.875" height="24"><div xmlns="http://www.w3.org/1999/xhtml" style="display: table-cell; white-space: nowrap; line-height: 1.5; max-width: 137px; text-align: start;"><span class="nodeLabel"><p>Float</p></span></div></foreignObject></g><g class="label attribute-name" transform="translate(-29.64583333333333, 52.125)" style=""><foreignObject width="72.421875" height="24"><div xmlns="http://www.w3.org/1999/xhtml" style="display: table-cell; white-space: nowrap; line-height: 1.5; max-width: 173px; text-align: start;"><span class="nodeLabel"><p>humedad</p></span></div></foreignObject></g><g class="label attribute-keys" transform="translate(107.52083333333331, 52.125)" style=""><foreignObject width="0" height="0"><div xmlns="http://www.w3.org/1999/xhtml" style="display: table-cell; white-space: nowrap; line-height: 1.5; max-width: 100px; text-align: start;"><span class="nodeLabel"></span></div></foreignObject></g><g class="label attribute-comment" transform="translate(167.21875, 52.125)" style=""><foreignObject width="0" height="0"><div xmlns="http://www.w3.org/1999/xhtml" style="display: table-cell; white-space: nowrap; line-height: 1.5; max-width: 100px; text-align: start;"><span class="nodeLabel"></span></div></foreignObject></g><g class="label attribute-type" transform="translate(-142.21875, 94.875)" style=""><foreignObject width="36.875" height="24"><div xmlns="http://www.w3.org/1999/xhtml" style="display: table-cell; white-space: nowrap; line-height: 1.5; max-width: 137px; text-align: start;"><span class="nodeLabel"><p>Float</p></span></div></foreignObject></g><g class="label attribute-name" transform="translate(-29.64583333333333, 94.875)" style=""><foreignObject width="46.625" height="24"><div xmlns="http://www.w3.org/1999/xhtml" style="display: table-cell; white-space: nowrap; line-height: 1.5; max-width: 147px; text-align: start;"><span class="nodeLabel"><p>viento</p></span></div></foreignObject></g><g class="label attribute-keys" transform="translate(107.52083333333331, 94.875)" style=""><foreignObject width="0" height="0"><div xmlns="http://www.w3.org/1999/xhtml" style="display: table-cell; white-space: nowrap; line-height: 1.5; max-width: 100px; text-align: start;"><span class="nodeLabel"></span></div></foreignObject></g><g class="label attribute-comment" transform="translate(167.21875, 94.875)" style=""><foreignObject width="0" height="0"><div xmlns="http://www.w3.org/1999/xhtml" style="display: table-cell; white-space: nowrap; line-height: 1.5; max-width: 100px; text-align: start;"><span class="nodeLabel"></span></div></foreignObject></g><g class="label attribute-type" transform="translate(-142.21875, 137.625)" style=""><foreignObject width="36.875" height="24"><div xmlns="http://www.w3.org/1999/xhtml" style="display: table-cell; white-space: nowrap; line-height: 1.5; max-width: 137px; text-align: start;"><span class="nodeLabel"><p>Float</p></span></div></foreignObject></g><g class="label attribute-name" transform="translate(-29.64583333333333, 137.625)" style=""><foreignObject width="97.0625" height="24"><div xmlns="http://www.w3.org/1999/xhtml" style="display: table-cell; white-space: nowrap; line-height: 1.5; max-width: 199px; text-align: start;"><span class="nodeLabel"><p>precipitacion</p></span></div></foreignObject></g><g class="label attribute-keys" transform="translate(107.52083333333331, 137.625)" style=""><foreignObject width="0" height="0"><div xmlns="http://www.w3.org/1999/xhtml" style="display: table-cell; white-space: nowrap; line-height: 1.5; max-width: 100px; text-align: start;"><span class="nodeLabel"></span></div></foreignObject></g><g class="label attribute-comment" transform="translate(167.21875, 137.625)" style=""><foreignObject width="0" height="0"><div xmlns="http://www.w3.org/1999/xhtml" style="display: table-cell; white-space: nowrap; line-height: 1.5; max-width: 100px; text-align: start;"><span class="nodeLabel"></span></div></foreignObject></g><g class="divider"><path d="M-154.71875 -128.25005 L-154.71875 -128.24995 L154.71875 -128.24995 L154.71875 -128.25005" stroke="none" stroke-width="0" fill="#ECECFF" fill-rule="evenodd"/><path d="M-154.71875 -128.25005 C-154.71875 -128.250014971933, -154.71875 -128.24997994386607, -154.71875 -128.24995 M-154.71875 -128.25005 C-154.71875 -128.2500110279827, -154.71875 -128.2499720559654, -154.71875 -128.24995 M-154.71875 -128.24995 C-37.35809521110767 -128.24995, 80.00255957778467 -128.24995, 154.71875 -128.24995 M-154.71875 -128.24995 C-40.05693239735781 -128.24995, 74.60488520528438 -128.24995, 154.71875 -128.24995 M154.71875 -128.24995 C154.71875 -128.2499750173809, 154.71875 -128.25000003476183, 154.71875 -128.25005 M154.71875 -128.24995 C154.71875 -128.2499705586597, 154.71875 -128.24999111731938, 154.71875 -128.25005 M154.71875 -128.25005 C86.68149793874485 -128.25005, 18.64424587748971 -128.25005, -154.71875 -128.25005 M154.71875 -128.25005 C33.6323060447187 -128.25005, -87.4541379105626 -128.25005, -154.71875 -128.25005" stroke="#9370DB" stroke-width="1.3" fill="none" stroke-dasharray="0 0"/></g><g class="divider"><path d="M-42.14588333333333 -128.25 L-42.14578333333333 -128.25 L-42.14578333333333 171 L-42.14588333333333 171" stroke="none" stroke-width="0" fill="#ECECFF" fill-rule="evenodd"/><path d="M-42.14588333333333 -128.25 C-42.14585787406918 -128.25, -42.14583241480502 -128.25, -42.14578333333333 -128.25 M-42.14588333333333 -128.25 C-42.14585826037557 -128.25, -42.145833187417814 -128.25, -42.14578333333333 -128.25 M-42.14578333333333 -128.25 C-42.14578333333333 -21.15257610948882, -42.14578333333333 85.94484778102236, -42.14578333333333 171 M-42.14578333333333 -128.25 C-42.14578333333333 -26.207420750663786, -42.14578333333333 75.83515849867243, -42.14578333333333 171 M-42.14578333333333 171 C-42.14582137526013 171, -42.14585941718693 171, -42.14588333333333 171 M-42.14578333333333 171 C-42.14581456907796 171, -42.14584580482259 171, -42.14588333333333 171 M-42.14588333333333 171 C-42.14588333333333 82.36482534717798, -42.14588333333333 -6.270349305644032, -42.14588333333333 -128.25 M-42.14588333333333 171 C-42.14588333333333 62.95461797981598, -42.14588333333333 -45.09076404036804, -42.14588333333333 -128.25" stroke="#9370DB" stroke-width="1.3" fill="none" stroke-dasharray="0 0"/></g><g class="divider"><path d="M95.02078333333331 -128.25 L95.02088333333332 -128.25 L95.02088333333332 171 L95.02078333333331 171" stroke="none" stroke-width="0" fill="#ECECFF" fill-rule="evenodd"/><path d="M95.02078333333331 -128.25 C95.02081353865547 -128.25, 95.02084374397764 -128.25, 95.02088333333332 -128.25 M95.02078333333331 -128.25 C95.02081949901776 -128.25, 95.0208556647022 -128.25, 95.02088333333332 -128.25 M95.02088333333332 -128.25 C95.02088333333332 -60.943399966361454, 95.02088333333332 6.363200067277091, 95.02088333333332 171 M95.02088333333332 -128.25 C95.02088333333332 -61.32128551640304, 95.02088333333332 5.6074289671939255, 95.02088333333332 171 M95.02088333333332 171 C95.02085601416047 171, 95.02082869498764 171, 95.02078333333331 171 M95.02088333333332 171 C95.02085426742602 171, 95.0208252015187 171, 95.02078333333331 171 M95.02078333333331 171 C95.02078333333331 97.39307874850361, 95.02078333333331 23.786157497007224, 95.02078333333331 -128.25 M95.02078333333331 171 C95.02078333333331 74.06698569755103, 95.02078333333331 -22.866028604897934, 95.02078333333331 -128.25" stroke="#9370DB" stroke-width="1.3" fill="none" stroke-dasharray="0 0"/></g><g class="divider"><path d="M-154.71875 -128.25005 L-154.71875 -128.24995 L154.71875 -128.24995 L154.71875 -128.25005" stroke="none" stroke-width="0" fill="#ECECFF" fill-rule="evenodd"/><path d="M-154.71875 -128.25005 C-154.71875 -128.25001206442815, -154.71875 -128.24997412885628, -154.71875 -128.24995 M-154.71875 -128.25005 C-154.71875 -128.2500144848377, -154.71875 -128.2499789696754, -154.71875 -128.24995 M-154.71875 -128.24995 C-50.305218050601624 -128.24995, 54.10831389879675 -128.24995, 154.71875 -128.24995 M-154.71875 -128.24995 C-60.705711739099485 -128.24995, 33.30732652180103 -128.24995, 154.71875 -128.24995 M154.71875 -128.24995 C154.71875 -128.24997053787686, 154.71875 -128.2499910757537, 154.71875 -128.25005 M154.71875 -128.24995 C154.71875 -128.2499846898616, 154.71875 -128.2500193797232, 154.71875 -128.25005 M154.71875 -128.25005 C87.72850808122638 -128.25005, 20.73826616245276 -128.25005, -154.71875 -128.25005 M154.71875 -128.25005 C61.26861160437909 -128.25005, -32.18152679124182 -128.25005, -154.71875 -128.25005" stroke="#9370DB" stroke-width="1.3" fill="none" stroke-dasharray="0 0"/></g></g><g class="node default" id="my-svg-entity-INCIDENTES_HISTORICOS-2" data-look="classic" transform="translate(602.6328125, 493.75)"><g class="outer-path" style=""><path d="M-145.1953125 -128.25 L145.1953125 -128.25 L145.1953125 128.25 L-145.1953125 128.25" stroke="none" stroke-width="0" fill="#ECECFF"/><path d="M-145.1953125 -128.25 C-40.53479856922951 -128.25, 64.12571536154098 -128.25, 145.1953125 -128.25 M-145.1953125 -128.25 C-81.53492580695855 -128.25, -17.87453911391711 -128.25, 145.1953125 -128.25 M145.1953125 -128.25 C145.1953125 -54.91546252271601, 145.1953125 18.419074954567975, 145.1953125 128.25 M145.1953125 -128.25 C145.1953125 -55.8147482127857, 145.1953125 16.620503574428596, 145.1953125 128.25 M145.1953125 128.25 C51.14269351605397 128.25, -42.909925467892066 128.25, -145.1953125 128.25 M145.1953125 128.25 C40.49521631612545 128.25, -64.2048798677491 128.25, -145.1953125 128.25 M-145.1953125 128.25 C-145.1953125 35.013407298297864, -145.1953125 -58.22318540340427, -145.1953125 -128.25 M-145.1953125 128.25 C-145.1953125 43.58261699162708, -145.1953125 -41.084766016745846, -145.1953125 -128.25" stroke="#9370DB" stroke-width="1.3" fill="none" stroke-dasharray="0 0"/></g><g style="" class="row-rect-odd"><path d="M-145.1953125 -85.5 L145.1953125 -85.5 L145.1953125 -42.75 L-145.1953125 -42.75" stroke="none" stroke-width="0" fill="hsl(240, 100%, 100%)"/><path d="M-145.1953125 -85.5 C-37.733720137311806 -85.5, 69.72787222537639 -85.5, 145.1953125 -85.5 M-145.1953125 -85.5 C-47.18075825155874 -85.5, 50.833795996882515 -85.5, 145.1953125 -85.5 M145.1953125 -85.5 C145.1953125 -75.29810231086175, 145.1953125 -65.0962046217235, 145.1953125 -42.75 M145.1953125 -85.5 C145.1953125 -68.9773362678513, 145.1953125 -52.4546725357026, 145.1953125 -42.75 M145.1953125 -42.75 C77.96331885552111 -42.75, 10.731325211042218 -42.75, -145.1953125 -42.75 M145.1953125 -42.75 C73.6264140018181 -42.75, 2.0575155036362105 -42.75, -145.1953125 -42.75 M-145.1953125 -42.75 C-145.1953125 -52.245446066195, -145.1953125 -61.74089213239, -145.1953125 -85.5 M-145.1953125 -42.75 C-145.1953125 -57.32988889657916, -145.1953125 -71.90977779315833, -145.1953125 -85.5" stroke="#9370DB" stroke-width="1.3" fill="none" stroke-dasharray="0 0"/></g><g style="" class="row-rect-even"><path d="M-145.1953125 -42.75 L145.1953125 -42.75 L145.1953125 0 L-145.1953125 0" stroke="none" stroke-width="0" fill="hsl(240, 100%, 97.2745098039%)"/><path d="M-145.1953125 -42.75 C-63.86618123027975 -42.75, 17.4629500394405 -42.75, 145.1953125 -42.75 M-145.1953125 -42.75 C-56.287850049533134 -42.75, 32.61961240093373 -42.75, 145.1953125 -42.75 M145.1953125 -42.75 C145.1953125 -33.16407301366787, 145.1953125 -23.578146027335734, 145.1953125 0 M145.1953125 -42.75 C145.1953125 -29.193580353514765, 145.1953125 -15.63716070702953, 145.1953125 0 M145.1953125 0 C35.171153243051165 0, -74.85300601389767 0, -145.1953125 0 M145.1953125 0 C38.254757701065515 0, -68.68579709786897 0, -145.1953125 0 M-145.1953125 0 C-145.1953125 -15.80681216497071, -145.1953125 -31.61362432994142, -145.1953125 -42.75 M-145.1953125 0 C-145.1953125 -10.383518130035702, -145.1953125 -20.767036260071404, -145.1953125 -42.75" stroke="#9370DB" stroke-width="1.3" fill="none" stroke-dasharray="0 0"/></g><g style="" class="row-rect-odd"><path d="M-145.1953125 0 L145.1953125 0 L145.1953125 42.75 L-145.1953125 42.75" stroke="none" stroke-width="0" fill="hsl(240, 100%, 100%)"/><path d="M-145.1953125 0 C-84.80439385051665 0, -24.413475201033293 0, 145.1953125 0 M-145.1953125 0 C-82.70377704040402 0, -20.21224158080804 0, 145.1953125 0 M145.1953125 0 C145.1953125 16.104705944135645, 145.1953125 32.20941188827129, 145.1953125 42.75 M145.1953125 0 C145.1953125 13.04167201462796, 145.1953125 26.08334402925592, 145.1953125 42.75 M145.1953125 42.75 C84.76501817614886 42.75, 24.334723852297714 42.75, -145.1953125 42.75 M145.1953125 42.75 C83.21873403733815 42.75, 21.24215557467629 42.75, -145.1953125 42.75 M-145.1953125 42.75 C-145.1953125 27.411497936473296, -145.1953125 12.072995872946596, -145.1953125 0 M-145.1953125 42.75 C-145.1953125 26.796441302530678, -145.1953125 10.842882605061355, -145.1953125 0" stroke="#9370DB" stroke-width="1.3" fill="none" stroke-dasharray="0 0"/></g><g style="" class="row-rect-even"><path d="M-145.1953125 42.75 L145.1953125 42.75 L145.1953125 85.5 L-145.1953125 85.5" stroke="none" stroke-width="0" fill="hsl(240, 100%, 97.2745098039%)"/><path d="M-145.1953125 42.75 C-71.99109073496129 42.75, 1.2131310300774203 42.75, 145.1953125 42.75 M-145.1953125 42.75 C-47.663354246358864 42.75, 49.86860400728227 42.75, 145.1953125 42.75 M145.1953125 42.75 C145.1953125 58.25022077255832, 145.1953125 73.75044154511664, 145.1953125 85.5 M145.1953125 42.75 C145.1953125 51.80998873250482, 145.1953125 60.86997746500964, 145.1953125 85.5 M145.1953125 85.5 C78.15237574457386 85.5, 11.10943898914772 85.5, -145.1953125 85.5 M145.1953125 85.5 C71.78090190813896 85.5, -1.6335086837220842 85.5, -145.1953125 85.5 M-145.1953125 85.5 C-145.1953125 73.13835899876385, -145.1953125 60.7767179975277, -145.1953125 42.75 M-145.1953125 85.5 C-145.1953125 72.25924232186611, -145.1953125 59.01848464373222, -145.1953125 42.75" stroke="#9370DB" stroke-width="1.3" fill="none" stroke-dasharray="0 0"/></g><g style="" class="row-rect-odd"><path d="M-145.1953125 85.5 L145.1953125 85.5 L145.1953125 128.25 L-145.1953125 128.25" stroke="none" stroke-width="0" fill="hsl(240, 100%, 100%)"/><path d="M-145.1953125 85.5 C-79.57420961637106 85.5, -13.953106732742128 85.5, 145.1953125 85.5 M-145.1953125 85.5 C-82.0466187079133 85.5, -18.89792491582658 85.5, 145.1953125 85.5 M145.1953125 85.5 C145.1953125 101.91553301475264, 145.1953125 118.3310660295053, 145.1953125 128.25 M145.1953125 85.5 C145.1953125 99.54306288141959, 145.1953125 113.58612576283917, 145.1953125 128.25 M145.1953125 128.25 C43.23428559769751 128.25, -58.726741304604985 128.25, -145.1953125 128.25 M145.1953125 128.25 C73.51666775645928 128.25, 1.838023012918569 128.25, -145.1953125 128.25 M-145.1953125 128.25 C-145.1953125 112.66188987816419, -145.1953125 97.07377975632838, -145.1953125 85.5 M-145.1953125 128.25 C-145.1953125 118.80115332861149, -145.1953125 109.35230665722298, -145.1953125 85.5" stroke="#9370DB" stroke-width="1.3" fill="none" stroke-dasharray="0 0"/></g><g class="label name" transform="translate(-96.5625, -118.875)" style=""><foreignObject width="193.125" height="24"><div xmlns="http://www.w3.org/1999/xhtml" style="display: table-cell; white-space: nowrap; line-height: 1.5; max-width: 294px; text-align: start;"><span class="nodeLabel"><p>INCIDENTES_HISTORICOS</p></span></div></foreignObject></g><g class="label attribute-type" transform="translate(-132.6953125, -76.125)" style=""><foreignObject width="40.5" height="24"><div xmlns="http://www.w3.org/1999/xhtml" style="display: table-cell; white-space: nowrap; line-height: 1.5; max-width: 141px; text-align: start;"><span class="nodeLabel"><p>UUID</p></span></div></foreignObject></g><g class="label attribute-name" transform="translate(-32.8046875, -76.125)" style=""><foreignObject width="90.453125" height="24"><div xmlns="http://www.w3.org/1999/xhtml" style="display: table-cell; white-space: nowrap; line-height: 1.5; max-width: 191px; text-align: start;"><span class="nodeLabel"><p>id_incidente</p></span></div></foreignObject></g><g class="label attribute-keys" transform="translate(113.1015625, -76.125)" style=""><foreignObject width="19.59375" height="24"><div xmlns="http://www.w3.org/1999/xhtml" style="display: table-cell; white-space: nowrap; line-height: 1.5; max-width: 120px; text-align: start;"><span class="nodeLabel"><p>PK</p></span></div></foreignObject></g><g class="label attribute-comment" transform="translate(157.6953125, -76.125)" style=""><foreignObject width="0" height="0"><div xmlns="http://www.w3.org/1999/xhtml" style="display: table-cell; white-space: nowrap; line-height: 1.5; max-width: 100px; text-align: start;"><span class="nodeLabel"></span></div></foreignObject></g><g class="label attribute-type" transform="translate(-132.6953125, -33.375)" style=""><foreignObject width="40.5" height="24"><div xmlns="http://www.w3.org/1999/xhtml" style="display: table-cell; white-space: nowrap; line-height: 1.5; max-width: 141px; text-align: start;"><span class="nodeLabel"><p>UUID</p></span></div></foreignObject></g><g class="label attribute-name" transform="translate(-32.8046875, -33.375)" style=""><foreignObject width="57.140625" height="24"><div xmlns="http://www.w3.org/1999/xhtml" style="display: table-cell; white-space: nowrap; line-height: 1.5; max-width: 158px; text-align: start;"><span class="nodeLabel"><p>id_zona</p></span></div></foreignObject></g><g class="label attribute-keys" transform="translate(113.1015625, -33.375)" style=""><foreignObject width="18.21875" height="24"><div xmlns="http://www.w3.org/1999/xhtml" style="display: table-cell; white-space: nowrap; line-height: 1.5; max-width: 118px; text-align: start;"><span class="nodeLabel"><p>FK</p></span></div></foreignObject></g><g class="label attribute-comment" transform="translate(157.6953125, -33.375)" style=""><foreignObject width="0" height="0"><div xmlns="http://www.w3.org/1999/xhtml" style="display: table-cell; white-space: nowrap; line-height: 1.5; max-width: 100px; text-align: start;"><span class="nodeLabel"></span></div></foreignObject></g><g class="label attribute-type" transform="translate(-132.6953125, 9.375)" style=""><foreignObject width="72.46875" height="24"><div xmlns="http://www.w3.org/1999/xhtml" style="display: table-cell; white-space: nowrap; line-height: 1.5; max-width: 173px; text-align: start;"><span class="nodeLabel"><p>DateTime</p></span></div></foreignObject></g><g class="label attribute-name" transform="translate(-32.8046875, 9.375)" style=""><foreignObject width="120.90625" height="24"><div xmlns="http://www.w3.org/1999/xhtml" style="display: table-cell; white-space: nowrap; line-height: 1.5; max-width: 223px; text-align: start;"><span class="nodeLabel"><p>fecha_deteccion</p></span></div></foreignObject></g><g class="label attribute-keys" transform="translate(113.1015625, 9.375)" style=""><foreignObject width="0" height="0"><div xmlns="http://www.w3.org/1999/xhtml" style="display: table-cell; white-space: nowrap; line-height: 1.5; max-width: 100px; text-align: start;"><span class="nodeLabel"></span></div></foreignObject></g><g class="label attribute-comment" transform="translate(157.6953125, 9.375)" style=""><foreignObject width="0" height="0"><div xmlns="http://www.w3.org/1999/xhtml" style="display: table-cell; white-space: nowrap; line-height: 1.5; max-width: 100px; text-align: start;"><span class="nodeLabel"></span></div></foreignObject></g><g class="label attribute-type" transform="translate(-132.6953125, 52.125)" style=""><foreignObject width="45.03125" height="24"><div xmlns="http://www.w3.org/1999/xhtml" style="display: table-cell; white-space: nowrap; line-height: 1.5; max-width: 146px; text-align: start;"><span class="nodeLabel"><p>String</p></span></div></foreignObject></g><g class="label attribute-name" transform="translate(-32.8046875, 52.125)" style=""><foreignObject width="49.109375" height="24"><div xmlns="http://www.w3.org/1999/xhtml" style="display: table-cell; white-space: nowrap; line-height: 1.5; max-width: 150px; text-align: start;"><span class="nodeLabel"><p>fuente</p></span></div></foreignObject></g><g class="label attribute-keys" transform="translate(113.1015625, 52.125)" style=""><foreignObject width="0" height="0"><div xmlns="http://www.w3.org/1999/xhtml" style="display: table-cell; white-space: nowrap; line-height: 1.5; max-width: 100px; text-align: start;"><span class="nodeLabel"></span></div></foreignObject></g><g class="label attribute-comment" transform="translate(157.6953125, 52.125)" style=""><foreignObject width="0" height="0"><div xmlns="http://www.w3.org/1999/xhtml" style="display: table-cell; white-space: nowrap; line-height: 1.5; max-width: 100px; text-align: start;"><span class="nodeLabel"></span></div></foreignObject></g><g class="label attribute-type" transform="translate(-132.6953125, 94.875)" style=""><foreignObject width="74.890625" height="24"><div xmlns="http://www.w3.org/1999/xhtml" style="display: table-cell; white-space: nowrap; line-height: 1.5; max-width: 177px; text-align: start;"><span class="nodeLabel"><p>Geometry</p></span></div></foreignObject></g><g class="label attribute-name" transform="translate(-32.8046875, 94.875)" style=""><foreignObject width="89.875" height="24"><div xmlns="http://www.w3.org/1999/xhtml" style="display: table-cell; white-space: nowrap; line-height: 1.5; max-width: 192px; text-align: start;"><span class="nodeLabel"><p>coordenada</p></span></div></foreignObject></g><g class="label attribute-keys" transform="translate(113.1015625, 94.875)" style=""><foreignObject width="0" height="0"><div xmlns="http://www.w3.org/1999/xhtml" style="display: table-cell; white-space: nowrap; line-height: 1.5; max-width: 100px; text-align: start;"><span class="nodeLabel"></span></div></foreignObject></g><g class="label attribute-comment" transform="translate(157.6953125, 94.875)" style=""><foreignObject width="0" height="0"><div xmlns="http://www.w3.org/1999/xhtml" style="display: table-cell; white-space: nowrap; line-height: 1.5; max-width: 100px; text-align: start;"><span class="nodeLabel"></span></div></foreignObject></g><g class="divider"><path d="M-145.1953125 -85.50005 L-145.1953125 -85.49995 L145.1953125 -85.49995 L145.1953125 -85.50005" stroke="none" stroke-width="0" fill="#ECECFF" fill-rule="evenodd"/><path d="M-145.1953125 -85.50005 C-145.1953125 -85.50001718028147, -145.1953125 -85.49998436056295, -145.1953125 -85.49995 M-145.1953125 -85.50005 C-145.1953125 -85.50002564611214, -145.1953125 -85.50000129222425, -145.1953125 -85.49995 M-145.1953125 -85.49995 C-39.7803783134772 -85.49995, 65.6345558730456 -85.49995, 145.1953125 -85.49995 M-145.1953125 -85.49995 C-63.554950287512824 -85.49995, 18.085411924974352 -85.49995, 145.1953125 -85.49995 M145.1953125 -85.49995 C145.1953125 -85.49998556754363, 145.1953125 -85.50002113508725, 145.1953125 -85.50005 M145.1953125 -85.49995 C145.1953125 -85.49997602776811, 145.1953125 -85.50000205553624, 145.1953125 -85.50005 M145.1953125 -85.50005 C84.69910352977061 -85.50005, 24.20289455954122 -85.50005, -145.1953125 -85.50005 M145.1953125 -85.50005 C56.178674131487355 -85.50005, -32.83796423702529 -85.50005, -145.1953125 -85.50005" stroke="#9370DB" stroke-width="1.3" fill="none" stroke-dasharray="0 0"/></g><g class="divider"><path d="M-45.3047375 -85.5 L-45.3046375 -85.5 L-45.3046375 128.25 L-45.3047375 128.25" stroke="none" stroke-width="0" fill="#ECECFF" fill-rule="evenodd"/><path d="M-45.3047375 -85.5 C-45.304712532097504 -85.5, -45.30468756419501 -85.5, -45.3046375 -85.5 M-45.3047375 -85.5 C-45.304710116640685 -85.5, -45.30468273328137 -85.5, -45.3046375 -85.5 M-45.3046375 -85.5 C-45.3046375 -16.47002177638386, -45.3046375 52.55995644723228, -45.3046375 128.25 M-45.3046375 -85.5 C-45.3046375 -23.65637707314982, -45.3046375 38.18724585370036, -45.3046375 128.25 M-45.3046375 128.25 C-45.30467425688893 128.25, -45.30471101377787 128.25, -45.3047375 128.25 M-45.3046375 128.25 C-45.30467612880086 128.25, -45.30471475760171 128.25, -45.3047375 128.25 M-45.3047375 128.25 C-45.3047375 56.9854772618463, -45.3047375 -14.279045476307402, -45.3047375 -85.5 M-45.3047375 128.25 C-45.3047375 47.447482485872044, -45.3047375 -33.35503502825591, -45.3047375 -85.5" stroke="#9370DB" stroke-width="1.3" fill="none" stroke-dasharray="0 0"/></g><g class="divider"><path d="M100.6015125 -85.5 L100.6016125 -85.5 L100.6016125 128.25 L100.6015125 128.25" stroke="none" stroke-width="0" fill="#ECECFF" fill-rule="evenodd"/><path d="M100.6015125 -85.5 C100.60154152634368 -85.5, 100.60157055268736 -85.5, 100.6016125 -85.5 M100.6015125 -85.5 C100.60154205934423 -85.5, 100.60157161868845 -85.5, 100.6016125 -85.5 M100.6016125 -85.5 C100.6016125 -28.262098361219863, 100.6016125 28.975803277560274, 100.6016125 128.25 M100.6016125 -85.5 C100.6016125 -21.131627085457808, 100.6016125 43.236745829084384, 100.6016125 128.25 M100.6016125 128.25 C100.60158969543967 128.25, 100.60156689087935 128.25, 100.6015125 128.25 M100.6016125 128.25 C100.60159017833098 128.25, 100.60156785666197 128.25, 100.6015125 128.25 M100.6015125 128.25 C100.6015125 84.62534733409984, 100.6015125 41.00069466819967, 100.6015125 -85.5 M100.6015125 128.25 C100.6015125 79.92165477302586, 100.6015125 31.593309546051742, 100.6015125 -85.5" stroke="#9370DB" stroke-width="1.3" fill="none" stroke-dasharray="0 0"/></g><g class="divider"><path d="M-145.1953125 -85.50005 L-145.1953125 -85.49995 L145.1953125 -85.49995 L145.1953125 -85.50005" stroke="none" stroke-width="0" fill="#ECECFF" fill-rule="evenodd"/><path d="M-145.1953125 -85.50005 C-145.1953125 -85.50001098930706, -145.1953125 -85.49997197861411, -145.1953125 -85.49995 M-145.1953125 -85.50005 C-145.1953125 -85.50002662288901, -145.1953125 -85.50000324577803, -145.1953125 -85.49995 M-145.1953125 -85.49995 C-76.76986070310295 -85.49995, -8.3444089062059 -85.49995, 145.1953125 -85.49995 M-145.1953125 -85.49995 C-60.40547573109066 -85.49995, 24.384361037818678 -85.49995, 145.1953125 -85.49995 M145.1953125 -85.49995 C145.1953125 -85.4999836468636, 145.1953125 -85.5000172937272, 145.1953125 -85.50005 M145.1953125 -85.49995 C145.1953125 -85.49997734597434, 145.1953125 -85.5000046919487, 145.1953125 -85.50005 M145.1953125 -85.50005 C54.086083832950706 -85.50005, -37.02314483409859 -85.50005, -145.1953125 -85.50005 M145.1953125 -85.50005 C80.68704735089153 -85.50005, 16.178782201783065 -85.50005, -145.1953125 -85.50005" stroke="#9370DB" stroke-width="1.3" fill="none" stroke-dasharray="0 0"/></g></g><g class="node default" id="my-svg-entity-PREDICCIONES_RIESGO-3" data-look="classic" transform="translate(1035.5390625, 493.75)"><g class="outer-path" style=""><path d="M-147.7109375 -149.625 L147.7109375 -149.625 L147.7109375 149.625 L-147.7109375 149.625" stroke="none" stroke-width="0" fill="#ECECFF"/><path d="M-147.7109375 -149.625 C-61.39387271055132 -149.625, 24.923192078897358 -149.625, 147.7109375 -149.625 M-147.7109375 -149.625 C-49.89523850199825 -149.625, 47.9204604960035 -149.625, 147.7109375 -149.625 M147.7109375 -149.625 C147.7109375 -77.91206472624656, 147.7109375 -6.199129452493111, 147.7109375 149.625 M147.7109375 -149.625 C147.7109375 -53.51953758624366, 147.7109375 42.585924827512684, 147.7109375 149.625 M147.7109375 149.625 C60.83080907146463 149.625, -26.049319357070743 149.625, -147.7109375 149.625 M147.7109375 149.625 C63.040817213777984 149.625, -21.62930307244403 149.625, -147.7109375 149.625 M-147.7109375 149.625 C-147.7109375 42.372882646909176, -147.7109375 -64.87923470618165, -147.7109375 -149.625 M-147.7109375 149.625 C-147.7109375 32.45483418918491, -147.7109375 -84.71533162163018, -147.7109375 -149.625" stroke="#9370DB" stroke-width="1.3" fill="none" stroke-dasharray="0 0"/></g><g style="" class="row-rect-odd"><path d="M-147.7109375 -106.875 L147.7109375 -106.875 L147.7109375 -64.125 L-147.7109375 -64.125" stroke="none" stroke-width="0" fill="hsl(240, 100%, 100%)"/><path d="M-147.7109375 -106.875 C-68.59297018200827 -106.875, 10.524997135983455 -106.875, 147.7109375 -106.875 M-147.7109375 -106.875 C-47.40875969030519 -106.875, 52.89341811938962 -106.875, 147.7109375 -106.875 M147.7109375 -106.875 C147.7109375 -94.10202521123831, 147.7109375 -81.32905042247664, 147.7109375 -64.125 M147.7109375 -106.875 C147.7109375 -90.17616681780191, 147.7109375 -73.47733363560383, 147.7109375 -64.125 M147.7109375 -64.125 C29.827551688814424 -64.125, -88.05583412237115 -64.125, -147.7109375 -64.125 M147.7109375 -64.125 C65.61952357908716 -64.125, -16.471890341825684 -64.125, -147.7109375 -64.125 M-147.7109375 -64.125 C-147.7109375 -75.74543318264584, -147.7109375 -87.36586636529168, -147.7109375 -106.875 M-147.7109375 -64.125 C-147.7109375 -75.35135891026368, -147.7109375 -86.57771782052737, -147.7109375 -106.875" stroke="#9370DB" stroke-width="1.3" fill="none" stroke-dasharray="0 0"/></g><g style="" class="row-rect-even"><path d="M-147.7109375 -64.125 L147.7109375 -64.125 L147.7109375 -21.375 L-147.7109375 -21.375" stroke="none" stroke-width="0" fill="hsl(240, 100%, 97.2745098039%)"/><path d="M-147.7109375 -64.125 C-31.589441069485673 -64.125, 84.53205536102865 -64.125, 147.7109375 -64.125 M-147.7109375 -64.125 C-72.29819546666647 -64.125, 3.114546566667059 -64.125, 147.7109375 -64.125 M147.7109375 -64.125 C147.7109375 -49.04399525217448, 147.7109375 -33.96299050434896, 147.7109375 -21.375 M147.7109375 -64.125 C147.7109375 -52.31892282408345, 147.7109375 -40.5128456481669, 147.7109375 -21.375 M147.7109375 -21.375 C79.98415921343097 -21.375, 12.257380926861941 -21.375, -147.7109375 -21.375 M147.7109375 -21.375 C82.39282790004906 -21.375, 17.074718300098112 -21.375, -147.7109375 -21.375 M-147.7109375 -21.375 C-147.7109375 -36.3062708511689, -147.7109375 -51.23754170233779, -147.7109375 -64.125 M-147.7109375 -21.375 C-147.7109375 -34.41146972962685, -147.7109375 -47.4479394592537, -147.7109375 -64.125" stroke="#9370DB" stroke-width="1.3" fill="none" stroke-dasharray="0 0"/></g><g style="" class="row-rect-odd"><path d="M-147.7109375 -21.375 L147.7109375 -21.375 L147.7109375 21.375 L-147.7109375 21.375" stroke="none" stroke-width="0" fill="hsl(240, 100%, 100%)"/><path d="M-147.7109375 -21.375 C-57.187179529921394 -21.375, 33.33657844015721 -21.375, 147.7109375 -21.375 M-147.7109375 -21.375 C-83.12041891333433 -21.375, -18.529900326668667 -21.375, 147.7109375 -21.375 M147.7109375 -21.375 C147.7109375 -9.740059156449966, 147.7109375 1.8948816871000673, 147.7109375 21.375 M147.7109375 -21.375 C147.7109375 -6.8969788694409715, 147.7109375 7.581042261118057, 147.7109375 21.375 M147.7109375 21.375 C36.52138486130204 21.375, -74.66816777739592 21.375, -147.7109375 21.375 M147.7109375 21.375 C56.790192214100344 21.375, -34.13055307179931 21.375, -147.7109375 21.375 M-147.7109375 21.375 C-147.7109375 6.525101403482687, -147.7109375 -8.324797193034627, -147.7109375 -21.375 M-147.7109375 21.375 C-147.7109375 10.811530045952557, -147.7109375 0.24806009190511347, -147.7109375 -21.375" stroke="#9370DB" stroke-width="1.3" fill="none" stroke-dasharray="0 0"/></g><g style="" class="row-rect-even"><path d="M-147.7109375 21.375 L147.7109375 21.375 L147.7109375 64.125 L-147.7109375 64.125" stroke="none" stroke-width="0" fill="hsl(240, 100%, 97.2745098039%)"/><path d="M-147.7109375 21.375 C-34.17375081602847 21.375, 79.36343586794305 21.375, 147.7109375 21.375 M-147.7109375 21.375 C-55.82665073811677 21.375, 36.05763602376646 21.375, 147.7109375 21.375 M147.7109375 21.375 C147.7109375 30.20131930286557, 147.7109375 39.02763860573114, 147.7109375 64.125 M147.7109375 21.375 C147.7109375 30.360065160045657, 147.7109375 39.345130320091315, 147.7109375 64.125 M147.7109375 64.125 C37.44168089179993 64.125, -72.82757571640013 64.125, -147.7109375 64.125 M147.7109375 64.125 C43.608594590989355 64.125, -60.49374831802129 64.125, -147.7109375 64.125 M-147.7109375 64.125 C-147.7109375 50.13861920651355, -147.7109375 36.1522384130271, -147.7109375 21.375 M-147.7109375 64.125 C-147.7109375 52.92424848458039, -147.7109375 41.72349696916078, -147.7109375 21.375" stroke="#9370DB" stroke-width="1.3" fill="none" stroke-dasharray="0 0"/></g><g style="" class="row-rect-odd"><path d="M-147.7109375 64.125 L147.7109375 64.125 L147.7109375 106.875 L-147.7109375 106.875" stroke="none" stroke-width="0" fill="hsl(240, 100%, 100%)"/><path d="M-147.7109375 64.125 C-84.05446661148447 64.125, -20.397995722968943 64.125, 147.7109375 64.125 M-147.7109375 64.125 C-45.021546101667255 64.125, 57.66784529666549 64.125, 147.7109375 64.125 M147.7109375 64.125 C147.7109375 78.61375435774508, 147.7109375 93.10250871549015, 147.7109375 106.875 M147.7109375 64.125 C147.7109375 78.53631547163356, 147.7109375 92.94763094326711, 147.7109375 106.875 M147.7109375 106.875 C53.790240552282555 106.875, -40.13045639543489 106.875, -147.7109375 106.875 M147.7109375 106.875 C48.07797323073457 106.875, -51.55499103853086 106.875, -147.7109375 106.875 M-147.7109375 106.875 C-147.7109375 93.47387292565209, -147.7109375 80.07274585130418, -147.7109375 64.125 M-147.7109375 106.875 C-147.7109375 95.96628780492075, -147.7109375 85.0575756098415, -147.7109375 64.125" stroke="#9370DB" stroke-width="1.3" fill="none" stroke-dasharray="0 0"/></g><g style="" class="row-rect-even"><path d="M-147.7109375 106.875 L147.7109375 106.875 L147.7109375 149.625 L-147.7109375 149.625" stroke="none" stroke-width="0" fill="hsl(240, 100%, 97.2745098039%)"/><path d="M-147.7109375 106.875 C-77.9060803189285 106.875, -8.101223137857005 106.875, 147.7109375 106.875 M-147.7109375 106.875 C-31.038518610732396 106.875, 85.63390027853521 106.875, 147.7109375 106.875 M147.7109375 106.875 C147.7109375 123.68681305487974, 147.7109375 140.49862610975947, 147.7109375 149.625 M147.7109375 106.875 C147.7109375 122.84960636968859, 147.7109375 138.82421273937717, 147.7109375 149.625 M147.7109375 149.625 C37.20962753541595 149.625, -73.2916824291681 149.625, -147.7109375 149.625 M147.7109375 149.625 C83.62760548487628 149.625, 19.544273469752568 149.625, -147.7109375 149.625 M-147.7109375 149.625 C-147.7109375 136.77991857672174, -147.7109375 123.9348371534435, -147.7109375 106.875 M-147.7109375 149.625 C-147.7109375 137.46516302391652, -147.7109375 125.305326047833, -147.7109375 106.875" stroke="#9370DB" stroke-width="1.3" fill="none" stroke-dasharray="0 0"/></g><g class="label name" transform="translate(-88.8046875, -140.25)" style=""><foreignObject width="177.609375" height="24"><div xmlns="http://www.w3.org/1999/xhtml" style="display: table-cell; white-space: nowrap; line-height: 1.5; max-width: 279px; text-align: start;"><span class="nodeLabel"><p>PREDICCIONES_RIESGO</p></span></div></foreignObject></g><g class="label attribute-type" transform="translate(-135.2109375, -97.5)" style=""><foreignObject width="40.5" height="24"><div xmlns="http://www.w3.org/1999/xhtml" style="display: table-cell; white-space: nowrap; line-height: 1.5; max-width: 141px; text-align: start;"><span class="nodeLabel"><p>UUID</p></span></div></foreignObject></g><g class="label attribute-name" transform="translate(-37.7421875, -97.5)" style=""><foreignObject width="99.25" height="24"><div xmlns="http://www.w3.org/1999/xhtml" style="display: table-cell; white-space: nowrap; line-height: 1.5; max-width: 201px; text-align: start;"><span class="nodeLabel"><p>id_prediccion</p></span></div></foreignObject></g><g class="label attribute-keys" transform="translate(115.6171875, -97.5)" style=""><foreignObject width="19.59375" height="24"><div xmlns="http://www.w3.org/1999/xhtml" style="display: table-cell; white-space: nowrap; line-height: 1.5; max-width: 120px; text-align: start;"><span class="nodeLabel"><p>PK</p></span></div></foreignObject></g><g class="label attribute-comment" transform="translate(160.2109375, -97.5)" style=""><foreignObject width="0" height="0"><div xmlns="http://www.w3.org/1999/xhtml" style="display: table-cell; white-space: nowrap; line-height: 1.5; max-width: 100px; text-align: start;"><span class="nodeLabel"></span></div></foreignObject></g><g class="label attribute-type" transform="translate(-135.2109375, -54.75)" style=""><foreignObject width="40.5" height="24"><div xmlns="http://www.w3.org/1999/xhtml" style="display: table-cell; white-space: nowrap; line-height: 1.5; max-width: 141px; text-align: start;"><span class="nodeLabel"><p>UUID</p></span></div></foreignObject></g><g class="label attribute-name" transform="translate(-37.7421875, -54.75)" style=""><foreignObject width="57.140625" height="24"><div xmlns="http://www.w3.org/1999/xhtml" style="display: table-cell; white-space: nowrap; line-height: 1.5; max-width: 158px; text-align: start;"><span class="nodeLabel"><p>id_zona</p></span></div></foreignObject></g><g class="label attribute-keys" transform="translate(115.6171875, -54.75)" style=""><foreignObject width="18.21875" height="24"><div xmlns="http://www.w3.org/1999/xhtml" style="display: table-cell; white-space: nowrap; line-height: 1.5; max-width: 118px; text-align: start;"><span class="nodeLabel"><p>FK</p></span></div></foreignObject></g><g class="label attribute-comment" transform="translate(160.2109375, -54.75)" style=""><foreignObject width="0" height="0"><div xmlns="http://www.w3.org/1999/xhtml" style="display: table-cell; white-space: nowrap; line-height: 1.5; max-width: 100px; text-align: start;"><span class="nodeLabel"></span></div></foreignObject></g><g class="label attribute-type" transform="translate(-135.2109375, -12)" style=""><foreignObject width="72.46875" height="24"><div xmlns="http://www.w3.org/1999/xhtml" style="display: table-cell; white-space: nowrap; line-height: 1.5; max-width: 173px; text-align: start;"><span class="nodeLabel"><p>DateTime</p></span></div></foreignObject></g><g class="label attribute-name" transform="translate(-37.7421875, -12)" style=""><foreignObject width="128.359375" height="24"><div xmlns="http://www.w3.org/1999/xhtml" style="display: table-cell; white-space: nowrap; line-height: 1.5; max-width: 230px; text-align: start;"><span class="nodeLabel"><p>fecha_evaluacion</p></span></div></foreignObject></g><g class="label attribute-keys" transform="translate(115.6171875, -12)" style=""><foreignObject width="0" height="0"><div xmlns="http://www.w3.org/1999/xhtml" style="display: table-cell; white-space: nowrap; line-height: 1.5; max-width: 100px; text-align: start;"><span class="nodeLabel"></span></div></foreignObject></g><g class="label attribute-comment" transform="translate(160.2109375, -12)" style=""><foreignObject width="0" height="0"><div xmlns="http://www.w3.org/1999/xhtml" style="display: table-cell; white-space: nowrap; line-height: 1.5; max-width: 100px; text-align: start;"><span class="nodeLabel"></span></div></foreignObject></g><g class="label attribute-type" transform="translate(-135.2109375, 30.75)" style=""><foreignObject width="45.03125" height="24"><div xmlns="http://www.w3.org/1999/xhtml" style="display: table-cell; white-space: nowrap; line-height: 1.5; max-width: 146px; text-align: start;"><span class="nodeLabel"><p>String</p></span></div></foreignObject></g><g class="label attribute-name" transform="translate(-37.7421875, 30.75)" style=""><foreignObject width="89.359375" height="24"><div xmlns="http://www.w3.org/1999/xhtml" style="display: table-cell; white-space: nowrap; line-height: 1.5; max-width: 190px; text-align: start;"><span class="nodeLabel"><p>nivel_riesgo</p></span></div></foreignObject></g><g class="label attribute-keys" transform="translate(115.6171875, 30.75)" style=""><foreignObject width="0" height="0"><div xmlns="http://www.w3.org/1999/xhtml" style="display: table-cell; white-space: nowrap; line-height: 1.5; max-width: 100px; text-align: start;"><span class="nodeLabel"></span></div></foreignObject></g><g class="label attribute-comment" transform="translate(160.2109375, 30.75)" style=""><foreignObject width="0" height="0"><div xmlns="http://www.w3.org/1999/xhtml" style="display: table-cell; white-space: nowrap; line-height: 1.5; max-width: 100px; text-align: start;"><span class="nodeLabel"></span></div></foreignObject></g><g class="label attribute-type" transform="translate(-135.2109375, 73.5)" style=""><foreignObject width="48.21875" height="24"><div xmlns="http://www.w3.org/1999/xhtml" style="display: table-cell; white-space: nowrap; line-height: 1.5; max-width: 150px; text-align: start;"><span class="nodeLabel"><p>JSONB</p></span></div></foreignObject></g><g class="label attribute-name" transform="translate(-37.7421875, 73.5)" style=""><foreignObject width="117.40625" height="24"><div xmlns="http://www.w3.org/1999/xhtml" style="display: table-cell; white-space: nowrap; line-height: 1.5; max-width: 220px; text-align: start;"><span class="nodeLabel"><p>resultados_json</p></span></div></foreignObject></g><g class="label attribute-keys" transform="translate(115.6171875, 73.5)" style=""><foreignObject width="0" height="0"><div xmlns="http://www.w3.org/1999/xhtml" style="display: table-cell; white-space: nowrap; line-height: 1.5; max-width: 100px; text-align: start;"><span class="nodeLabel"></span></div></foreignObject></g><g class="label attribute-comment" transform="translate(160.2109375, 73.5)" style=""><foreignObject width="0" height="0"><div xmlns="http://www.w3.org/1999/xhtml" style="display: table-cell; white-space: nowrap; line-height: 1.5; max-width: 100px; text-align: start;"><span class="nodeLabel"></span></div></foreignObject></g><g class="label attribute-type" transform="translate(-135.2109375, 116.25)" style=""><foreignObject width="30.734375" height="24"><div xmlns="http://www.w3.org/1999/xhtml" style="display: table-cell; white-space: nowrap; line-height: 1.5; max-width: 131px; text-align: start;"><span class="nodeLabel"><p>Text</p></span></div></foreignObject></g><g class="label attribute-name" transform="translate(-37.7421875, 116.25)" style=""><foreignObject width="94.9375" height="24"><div xmlns="http://www.w3.org/1999/xhtml" style="display: table-cell; white-space: nowrap; line-height: 1.5; max-width: 196px; text-align: start;"><span class="nodeLabel"><p>directiva_nlp</p></span></div></foreignObject></g><g class="label attribute-keys" transform="translate(115.6171875, 116.25)" style=""><foreignObject width="0" height="0"><div xmlns="http://www.w3.org/1999/xhtml" style="display: table-cell; white-space: nowrap; line-height: 1.5; max-width: 100px; text-align: start;"><span class="nodeLabel"></span></div></foreignObject></g><g class="label attribute-comment" transform="translate(160.2109375, 116.25)" style=""><foreignObject width="0" height="0"><div xmlns="http://www.w3.org/1999/xhtml" style="display: table-cell; white-space: nowrap; line-height: 1.5; max-width: 100px; text-align: start;"><span class="nodeLabel"></span></div></foreignObject></g><g class="divider"><path d="M-147.7109375 -106.87505 L-147.7109375 -106.87495 L147.7109375 -106.87495 L147.7109375 -106.87505" stroke="none" stroke-width="0" fill="#ECECFF" fill-rule="evenodd"/><path d="M-147.7109375 -106.87505 C-147.7109375 -106.87501673924689, -147.7109375 -106.87498347849379, -147.7109375 -106.87495 M-147.7109375 -106.87505 C-147.7109375 -106.87502290200406, -147.7109375 -106.87499580400812, -147.7109375 -106.87495 M-147.7109375 -106.87495 C-45.203472751311764 -106.87495, 57.30399199737647 -106.87495, 147.7109375 -106.87495 M-147.7109375 -106.87495 C-63.84195629891124 -106.87495, 20.027024902177516 -106.87495, 147.7109375 -106.87495 M147.7109375 -106.87495 C147.7109375 -106.87497883987486, 147.7109375 -106.87500767974973, 147.7109375 -106.87505 M147.7109375 -106.87495 C147.7109375 -106.87498919013971, 147.7109375 -106.87502838027943, 147.7109375 -106.87505 M147.7109375 -106.87505 C80.5318939047055 -106.87505, 13.352850309410996 -106.87505, -147.7109375 -106.87505 M147.7109375 -106.87505 C64.5361015097709 -106.87505, -18.638734480458197 -106.87505, -147.7109375 -106.87505" stroke="#9370DB" stroke-width="1.3" fill="none" stroke-dasharray="0 0"/></g><g class="divider"><path d="M-50.2422375 -106.875 L-50.2421375 -106.875 L-50.2421375 149.625 L-50.2422375 149.625" stroke="none" stroke-width="0" fill="#ECECFF" fill-rule="evenodd"/><path d="M-50.2422375 -106.875 C-50.24221449585967 -106.875, -50.24219149171934 -106.875, -50.2421375 -106.875 M-50.2422375 -106.875 C-50.242202093407265 -106.875, -50.24216668681453 -106.875, -50.2421375 -106.875 M-50.2421375 -106.875 C-50.2421375 -38.43096947701126, -50.2421375 30.01306104597748, -50.2421375 149.625 M-50.2421375 -106.875 C-50.2421375 -33.92774408986257, -50.2421375 39.01951182027486, -50.2421375 149.625 M-50.2421375 149.625 C-50.24216836108194 149.625, -50.242199222163876 149.625, -50.2422375 149.625 M-50.2421375 149.625 C-50.24217108501159 149.625, -50.242204670023185 149.625, -50.2422375 149.625 M-50.2422375 149.625 C-50.2422375 78.89522800846058, -50.2422375 8.165456016921155, -50.2422375 -106.875 M-50.2422375 149.625 C-50.2422375 58.88740863379088, -50.2422375 -31.850182732418233, -50.2422375 -106.875" stroke="#9370DB" stroke-width="1.3" fill="none" stroke-dasharray="0 0"/></g><g class="divider"><path d="M103.1171375 -106.875 L103.1172375 -106.875 L103.1172375 149.625 L103.1171375 149.625" stroke="none" stroke-width="0" fill="#ECECFF" fill-rule="evenodd"/><path d="M103.1171375 -106.875 C103.1171671398555 -106.875, 103.117196779711 -106.875, 103.1172375 -106.875 M103.1171375 -106.875 C103.1171579753419 -106.875, 103.1171784506838 -106.875, 103.1172375 -106.875 M103.1172375 -106.875 C103.1172375 -6.202602713843447, 103.1172375 94.4697945723131, 103.1172375 149.625 M103.1172375 -106.875 C103.1172375 -50.321989190800466, 103.1172375 6.231021618399069, 103.1172375 149.625 M103.1172375 149.625 C103.11720160491771 149.625, 103.11716570983542 149.625, 103.1171375 149.625 M103.1172375 149.625 C103.11720728765297 149.625, 103.11717707530596 149.625, 103.1171375 149.625 M103.1171375 149.625 C103.1171375 76.7264320149017, 103.1171375 3.8278640298034077, 103.1171375 -106.875 M103.1171375 149.625 C103.1171375 71.57221257114469, 103.1171375 -6.4805748577106215, 103.1171375 -106.875" stroke="#9370DB" stroke-width="1.3" fill="none" stroke-dasharray="0 0"/></g><g class="divider"><path d="M-147.7109375 -106.87505 L-147.7109375 -106.87495 L147.7109375 -106.87495 L147.7109375 -106.87505" stroke="none" stroke-width="0" fill="#ECECFF" fill-rule="evenodd"/><path d="M-147.7109375 -106.87505 C-147.7109375 -106.87502570181032, -147.7109375 -106.87500140362064, -147.7109375 -106.87495 M-147.7109375 -106.87505 C-147.7109375 -106.87501108176475, -147.7109375 -106.87497216352952, -147.7109375 -106.87495 M-147.7109375 -106.87495 C-71.42368338623 -106.87495, 4.863570727540008 -106.87495, 147.7109375 -106.87495 M-147.7109375 -106.87495 C-66.82157836664825 -106.87495, 14.067780766703493 -106.87495, 147.7109375 -106.87495 M147.7109375 -106.87495 C147.7109375 -106.8749882654702, 147.7109375 -106.8750265309404, 147.7109375 -106.87505 M147.7109375 -106.87495 C147.7109375 -106.87497014053734, 147.7109375 -106.87499028107469, 147.7109375 -106.87505 M147.7109375 -106.87505 C45.56838608842956 -106.87505, -56.574165323140875 -106.87505, -147.7109375 -106.87505 M147.7109375 -106.87505 C76.17148798621668 -106.87505, 4.632038472433351 -106.87505, -147.7109375 -106.87505" stroke="#9370DB" stroke-width="1.3" fill="none" stroke-dasharray="0 0"/></g></g></g></g></g><defs><filter id="my-svg-drop-shadow" height="130%" width="130%"><feDropShadow dx="4" dy="4" stdDeviation="0" flood-opacity="0.06" flood-color="#000000"/></filter></defs><defs><filter id="my-svg-drop-shadow-small" height="150%" width="150%"><feDropShadow dx="2" dy="2" stdDeviation="0" flood-opacity="0.06" flood-color="#000000"/></filter></defs></svg>